# xmcd
# 
# Track frame offsets:
#     150
#     30460
#     48571
#     77961
#     115751
#     144604
#     168565
#     222197
#     239264
#     261597
#     284139
#     311229
# 
# Disc length: 4668
# 
# Revision: 3
# Processed by: cddbd v1.5.2PL0 Copyright (c) Steve Scherf et al.
# Submitted via: fre:ac v1.0.31
# 
DISCID=bc123a0c
DTITLE=Tom Waits - Transmission Impossible Disc 3 New York 1977]
DYEAR=2013
DGENRE=Rock/Pop
TTITLE0=Standin' On The Corner
TTITLE1=I Never Talk To Strangers
TTITLE2=Pasties And A G-String
TTITLE3=Invitation To The Blues
TTITLE4=Jitterbug Boy
TTITLE5=Step Right Up
TTITLE6=I Wish I Was In New Orleans - Small Change
TTITLE7=The Piano Has Been Drinking (Not Me)
TTITLE8=Emotional Weather Report
TTITLE9=Muriel
TTITLE10=Jack and Neal - California, Here I Come
TTITLE11=Tom Traubert's Blues
EXTD=Eat The Beat Recordings\n\nLive Broadcast from WLIR-FM from My Father's Place. Roslyn, New York, USA 10th October 1977. Tom Waits: voals, acoustic guitar, piano. Frank Vicari: tenor saxophone, Danny Tritan: upright bass, Chip White: drums, percussion
EXTD=s, vibes (c) 2013 Smokin' SMCD920
EXTT0=
EXTT1=
EXTT2=
EXTT3=
EXTT4=
EXTT5=
EXTT6=
EXTT7=
EXTT8=
EXTT9=
EXTT10=
EXTT11=
PLAYORDER=
